<svg width="32" height="32" viewBox="0 0 32 32" fill="none" xmlns="http://www.w3.org/2000/svg">
<path d="M26 13.25C26 16.35 22.84 23.98 20.08 27.89C19.618 28.5421 19.0065 29.074 18.2966 29.4411C17.5867 29.8082 16.7992 29.9997 16 29.9997C15.2008 29.9997 14.4133 29.8082 13.7034 29.4411C12.9935 29.074 12.382 28.5421 11.92 27.89C9.16 24 6 16.35 6 13.25C6 7.73 10.48 2 16 2C21.52 2 26 7.73 26 13.25Z" fill="url(#paint0_linear)"/>
<path d="M16 15.5C15.1827 15.502 14.3833 15.2614 13.7028 14.8088C13.0223 14.3562 12.4914 13.7119 12.1772 12.9574C11.8631 12.2029 11.7799 11.3722 11.9381 10.5704C12.0964 9.76862 12.4889 9.03179 13.0661 8.4532C13.6433 7.87461 14.3792 7.48027 15.1806 7.3201C15.982 7.15993 16.8129 7.24113 17.5682 7.55343C18.3234 7.86572 18.969 8.39506 19.4233 9.07445C19.8775 9.75384 20.12 10.5527 20.12 11.37C20.12 12.4636 19.6862 13.5126 18.9139 14.2868C18.1415 15.0611 17.0936 15.4973 16 15.5ZM16 9.25C15.5779 9.24802 15.1647 9.37151 14.8129 9.6048C14.4611 9.83808 14.1865 10.1706 14.0241 10.5602C13.8616 10.9499 13.8186 11.379 13.9005 11.7931C13.9823 12.2072 14.1854 12.5876 14.4839 12.8861C14.7824 13.1846 15.1628 13.3877 15.5769 13.4695C15.991 13.5514 16.4201 13.5084 16.8097 13.3459C17.1993 13.1835 17.5319 12.9089 17.7652 12.5571C17.9985 12.2053 18.122 11.7921 18.12 11.37C18.12 11.0916 18.0652 10.8159 17.9586 10.5587C17.8521 10.3015 17.6959 10.0678 17.4991 9.87093C17.3022 9.67407 17.0685 9.51791 16.8113 9.41137C16.5541 9.30483 16.2784 9.25 16 9.25V9.25Z" fill="#E0FFE4"/>
<defs>
<linearGradient id="paint0_linear" x1="16" y1="2" x2="16" y2="29.9997" gradientUnits="userSpaceOnUse">
<stop stop-color="#00DF8E"/>
<stop offset="1" stop-color="#00DF8E" stop-opacity="0.3"/>
</linearGradient>
</defs>
</svg>
