<svg width="512" height="512" viewBox="0 0 512 512" fill="none" xmlns="http://www.w3.org/2000/svg">
<path d="M40 38.999V468.998L215 293.998L270 348.998L360 258.998L470 358.998V38.999H40Z" fill="#BDFBFF"/>
<path d="M150 198.999C172.091 198.999 190 181.09 190 158.999C190 136.908 172.091 118.999 150 118.999C127.909 118.999 110 136.908 110 158.999C110 181.09 127.909 198.999 150 198.999Z" fill="#FBD243"/>
<path d="M470 358.998V468.998H385V463.998L270 348.998L360 258.998L470 358.998Z" fill="#00EE7C"/>
<path d="M385 463.998V468.998H40L215 293.998L270 348.998L385 463.998Z" fill="#00FF85"/>
</svg>
