<svg width="404" height="397" viewBox="0 0 404 397" fill="none" xmlns="http://www.w3.org/2000/svg">
<circle cx="198.5" cy="198.5" r="198.5" fill="url(#paint0_linear)"/>
<path d="M326 258.5C326 280.115 312.62 300.845 288.803 316.129C264.985 331.413 232.683 340 199 340C165.318 340 133.015 331.413 109.197 316.129C85.3803 300.845 72 280.115 72 258.5L199 258.5H326Z" fill="#FFCEE8"/>
<ellipse cx="126.66" cy="40.5536" rx="42.6282" ry="20.6808" transform="rotate(-15.8766 126.66 40.5536)" fill="white" fill-opacity="0.26"/>
<ellipse cx="366.944" cy="243.635" rx="18.2267" ry="36.5859" transform="rotate(35.5409 366.944 243.635)" fill="white" fill-opacity="0.25"/>
<ellipse cx="198.87" cy="315.949" rx="44.5411" ry="24.3413" transform="rotate(-0.784764 198.87 315.949)" fill="white" fill-opacity="0.2"/>
<path d="M319.219 214.043C316.688 214.043 313.313 213.199 310.782 211.512L251.723 177.764C246.661 175.233 243.286 169.327 243.286 164.265C243.286 158.359 245.817 153.297 250.036 149.922L309.095 107.737C316.688 102.675 326.812 104.363 332.718 111.956C337.78 119.549 336.093 129.673 328.5 135.579L290.533 162.578L326.812 183.67C335.249 187.888 337.78 198.856 332.718 206.45C331.031 210.668 325.125 214.043 319.219 214.043Z" fill="black"/>
<path d="M79.2364 214.043C73.3306 214.043 67.4247 210.668 64.8936 205.606C60.6751 197.169 63.2062 187.045 70.7995 182.826L107.078 161.734L69.1121 134.736C61.5188 129.673 59.8314 118.705 64.8936 111.112C69.9558 103.519 80.9238 101.831 88.5171 106.894L147.576 149.078C152.638 152.453 155.169 157.515 154.325 163.421C154.325 169.327 150.951 174.389 145.888 176.92L86.8297 210.668C85.1423 213.199 81.7675 214.043 79.2364 214.043Z" fill="black"/>
<defs>
<linearGradient id="paint0_linear" x1="198.5" y1="0" x2="198.5" y2="397" gradientUnits="userSpaceOnUse">
<stop stop-color="#5EFFB2"/>
<stop offset="1" stop-color="#5EFFB2" stop-opacity="0.37"/>
</linearGradient>
</defs>
</svg>
