<svg width="32" height="32" viewBox="0 0 32 32" fill="none" xmlns="http://www.w3.org/2000/svg">
<path d="M24 8.10535C25.9621 8.10535 27.5527 6.51476 27.5527 4.55267C27.5527 2.59059 25.9621 1 24 1C22.0379 1 20.4473 2.59059 20.4473 4.55267C20.4473 6.51476 22.0379 8.10535 24 8.10535Z" fill="#90F2FF"/>
<path d="M28.8882 19.1523H19.1118C18.2865 19.1523 17.495 18.8245 16.9114 18.2409C16.3279 17.6573 16 16.8658 16 16.0405V16.0405C16.0017 14.2735 16.7044 12.5794 17.9539 11.3299C19.2033 10.0804 20.8975 9.37772 22.6645 9.37601H25.3355C27.1025 9.37772 28.7967 10.0804 30.0461 11.3299C31.2956 12.5794 31.9983 14.2735 32 16.0405V16.0405C32 16.8658 31.6721 17.6573 31.0886 18.2409C30.505 18.8245 29.7135 19.1523 28.8882 19.1523V19.1523Z" fill="url(#paint0_linear)"/>
<path d="M13 12.96C16.0265 12.96 18.48 10.5065 18.48 7.48C18.48 4.45348 16.0265 2 13 2C9.97347 2 7.51999 4.45348 7.51999 7.48C7.51999 10.5065 9.97347 12.96 13 12.96Z" fill="#BFFFC8"/>
<path d="M20.54 30H5.46C4.18696 30 2.96607 29.4943 2.06589 28.5941C1.16572 27.6939 0.660004 26.473 0.660004 25.2V25.2C0.662651 22.4744 1.74657 19.8612 3.67387 17.9339C5.60117 16.0066 8.21439 14.9226 10.94 14.92H15.06C17.7856 14.9226 20.3988 16.0066 22.3261 17.9339C24.2534 19.8612 25.3374 22.4744 25.34 25.2V25.2C25.34 26.473 24.8343 27.6939 23.9341 28.5941C23.0339 29.4943 21.813 30 20.54 30V30Z" fill="url(#paint1_linear)"/>
<defs>
<linearGradient id="paint0_linear" x1="24" y1="9.37601" x2="24" y2="19.1523" gradientUnits="userSpaceOnUse">
<stop stop-color="#00D1FF"/>
<stop offset="1" stop-color="#00C2FF" stop-opacity="0.3"/>
</linearGradient>
<linearGradient id="paint1_linear" x1="13" y1="14.92" x2="13" y2="30" gradientUnits="userSpaceOnUse">
<stop stop-color="#00DF8E"/>
<stop offset="1" stop-color="#00DF8E" stop-opacity="0.3"/>
</linearGradient>
</defs>
</svg>
